<?xml version="1.0" encoding="UTF-8"?>
<svg xmlns="http://www.w3.org/2000/svg" viewBox="0 0 50 32">
  <defs>
    <style>
      .cls-1 {
        fill: #051242;
      }

      .cls-2 {
        fill: #ea1216;
      }

      .cls-3 {
        fill: #fff;
      }
    </style>
  </defs>
  <g id="BG">
    <rect class="cls-3" y="0" width="50" height="32" rx="4" ry="4"/>
  </g>
  <g id="LOGOS">
    <g>
      <path class="cls-1" d="m29.44,14.35c-.72,1.49-1.44,2.99-2.15,4.48-.13.28-.27.45-.64.44-.36,0-.44-.14-.49-.44-.22-1.43-.44-2.85-.67-4.28-.02-.14-.01-.28-.15-.44-.19,1.13-.38,2.22-.57,3.31-.09.52-.19,1.04-.26,1.56-.03.22-.11.29-.32.27-.28-.02-.56,0-.89,0,.11-.72.22-1.42.34-2.11.21-1.28.44-2.55.64-3.83.05-.31.13-.43.46-.41.5.03,1,.03,1.49,0,.29-.02.37.11.4.36.15,1.14.32,2.28.49,3.54.23-.47.42-.83.59-1.2.38-.8.77-1.59,1.14-2.39.1-.23.22-.32.48-.31.56.03,1.12.01,1.68,0,.19,0,.27.02.23.25-.33,1.96-.65,3.92-.97,5.89-.03.19-.13.23-.29.21-.4-.04-.82.1-1.21-.09-.03-.01.03-.2.04-.31.23-1.38.46-2.76.69-4.14.02-.12,0-.24,0-.37-.03,0-.05,0-.08,0Z"/>
      <path class="cls-1" d="m37.87,16.55c0,1.21-.71,2.14-1.79,2.48-.93.3-2.26-.05-2.74-.83-.37-.6-.6-1.29-.89-1.94-.32-.74-.64-1.48-.96-2.22-.19-.44-.1-.92.18-1.05.55-.25.98-.1,1.22.45.15.34.3.68.43,1.03.08.22.18.28.41.17.52-.23,1.08-.39,1.59-.65.93-.47,1.3-.13,1.83.52.52.62.68,1.38.7,2.04Zm-3.97-.11c.72-.33,1.57-.59,2.32-1.05.19-.12.22-.37.09-.59-.13-.22-.34-.37-.58-.28-.75.29-1.49.61-2.22.95-.17.08-.37.28-.29.51.09.25.26.47.67.47Zm.74,1.34c-.16.04-.27.12-.27.28,0,.18.11.3.29.29.16,0,.26-.11.27-.27,0-.18-.13-.26-.29-.3Zm2.2-1.58c-.04-.12-.11-.24-.28-.24-.17,0-.29.11-.28.3.01.18.14.28.32.26.15-.02.23-.13.24-.32Zm.09.56c-.17.04-.29.13-.27.32.02.16.13.26.28.25.18,0,.28-.13.27-.31-.02-.16-.12-.24-.28-.26Zm-2.66.23c-.16.02-.27.1-.28.26,0,.17.1.3.28.3.18,0,.29-.13.28-.31,0-.15-.13-.24-.28-.26Zm1.43-.26c-.04-.17-.14-.28-.32-.25-.15.02-.25.14-.23.29.02.18.14.28.32.25.15-.02.24-.13.24-.3Zm.1,1.12c.14-.01.25-.08.27-.24.02-.18-.08-.3-.26-.31-.18-.01-.29.1-.29.28,0,.16.1.25.28.27Z"/>
      <path class="cls-1" d="m38.6,19.26c.25-1.47.5-2.9.72-4.34.05-.3.15-.41.44-.37.05,0,.09,0,.14,0q.69,0,.69.7c.36-.36.64-.72,1.24-.73.82-.02,1.44.46,1.35,1.32-.1.92-.26,1.84-.45,2.75-.14.68-.18.66-.9.68-.39.01-.57-.01-.46-.5.19-.86.29-1.73.43-2.6.04-.26.04-.51-.24-.64-.28-.13-.52-.02-.73.15-.28.23-.36.57-.42.91-.14.78-.27,1.56-.39,2.34-.04.24-.11.36-.38.34-.34-.03-.68,0-1.04,0Z"/>
      <path class="cls-2" d="m5.82,14.77c.32.01.69-.02,1.07.06.8.17,1.2.87.93,1.65-.26.74-.6.98-1.39,1.04-.39.03-.9-.19-1.14.13-.21.27-.15.74-.23,1.12-.03.14.03.36-.17.39-.27.03-.55.02-.83-.02-.1-.01-.05-.16-.04-.25.21-1.3.43-2.59.64-3.89.03-.19.13-.25.32-.25.26.01.53,0,.84,0Zm.12,2c.14,0,.28-.02.42-.03.36-.02.53-.24.56-.57.03-.35-.17-.54-.51-.6-.68-.13-.74-.05-.91.65-.12.47-.05.65.45.55Z"/>
      <path class="cls-2" d="m15.7,17.26c.25-.27.53-.52.74-.81.37-.51.85-.68,1.49-.52-.29.29-.57.59-.87.87-.17.16-.21.31-.13.53.18.5.32,1.01.5,1.5.09.24.1.35-.22.37-.46.03-.76-.06-.83-.58-.04-.29-.17-.56-.27-.88-.41.29-.77.55-.79,1.12-.02.61-.51.3-.79.32-.36.03-.15-.27-.13-.4.19-1.21.4-2.42.61-3.63.02-.13-.06-.35.19-.36.25,0,.5-.02.74.03.1.02.02.19,0,.29-.12.7-.24,1.4-.35,2.09.04.02.07.05.11.07Z"/>
      <path class="cls-1" d="m44.24,19.26c-.7,0-.69,0-.57-.69.21-1.22.42-2.45.61-3.67.04-.28.15-.35.42-.35,1.06,0,1.06-.02.88,1.02-.17.98-.34,1.96-.5,2.94-.12.76-.12.76-.84.76Z"/>
      <path class="cls-2" d="m19.78,17.7c-.2,0-.41-.02-.61,0-.18.02-.48-.13-.48.25,0,.31.11.55.43.63.24.06.51.01.62-.21.21-.42.52-.2.8-.16.18.02.11.14.07.24-.23.53-.88.88-1.55.82-.62-.05-1.09-.43-1.24-1.02-.19-.74,0-1.39.5-1.95.36-.41,1.26-.57,1.75-.36.51.22.79.74.79,1.41,0,.26-.07.37-.34.34-.25-.02-.5,0-.75,0Zm-.45-.41c.27-.07.67.16.66-.36,0-.32-.19-.48-.5-.5-.32-.02-.69.31-.68.64.02.43.38.08.51.22Z"/>
      <path class="cls-2" d="m7.84,17.68c.02-1.22.89-2,2.01-1.82.35.06.6.24.8.51.67.88.19,2.45-.86,2.8-1.05.35-1.97-.35-1.95-1.49Zm2.15-.45c0-.33.05-.7-.4-.77-.44-.06-.58.28-.68.62-.08.28-.13.58-.12.88,0,.32.05.61.44.66.37.04.52-.21.61-.52.08-.28.15-.57.15-.87Z"/>
      <path class="cls-2" d="m14.13,18.07c-.24.65-.61,1.11-1.32,1.19-1.22.13-1.96-1.01-1.47-2.26.38-.99,1.47-1.4,2.42-.9.32.17.43.51.5.86.02.12-.04.19-.15.18-.28-.04-.63.2-.78-.3-.11-.35-.56-.37-.8-.06-.32.42-.38.92-.27,1.42.09.38.57.45.86.17q.39-.39,1-.28Z"/>
      <path class="cls-2" d="m22.36,19.27c-.87,0-1.14-.28-1.06-1.08.04-.41.14-.82.24-1.23.05-.21.04-.34-.22-.31-.15.02-.26-.04-.2-.2.07-.19-.07-.55.26-.54.37.01.43-.17.49-.45.09-.41.4-.58.8-.47.25.07.09.22.07.33-.08.36-.14.69.42.58.13-.03.28,0,.21.19-.07.19.08.5-.26.56-.12.02-.25.01-.37,0-.17-.01-.26.05-.28.23-.06.4-.13.8-.19,1.2-.06.33.09.46.41.46.12,0,.37-.11.3.18-.05.2.06.51-.31.53-.12,0-.25.02-.31.02Z"/>
      <path class="cls-2" d="m37.99,18.01c-.11-.2-.03-.34,0-.49.38-1.5-.21-3.09-1.48-3.91-.19-.12-.31-.23-.27-.47.04-.25.16-.43.39-.53.4-.17.84-.03,1.03.37.35.76.72,1.51.99,2.3.22.65.23,1.34-.04,2.01-.12.3-.29.57-.63.74Z"/>
      <path class="cls-1" d="m44.38,14.15c.04-.15.07-.24.08-.33.19-1.03.19-1.02,1.24-.99.25,0,.33.06.28.32-.04.26-.17.5-.13.78.02.14-.08.24-.27.23-.38-.02-.77,0-1.2,0Z"/>
      <path class="cls-2" d="m32.21,16.78c-.91-.36-1.05-.74-.47-1.41.26.58.5,1.13.75,1.69.1.23.22.45.31.68.06.15.27.32.1.45-.17.13-.41.1-.62-.02-.34-.2-.46-.61-.28-1.02.06-.13.14-.24.21-.36Z"/>
      <path class="cls-2" d="m33.14,18.44c.37.34.72.66,1.24.83-.36.24-.66.28-.95.06-.27-.21-.41-.48-.29-.89Z"/>
    </g>
  </g>
</svg>